<svg width="810" height="150" viewBox="0 0 810 150" fill="none" xmlns="http://www.w3.org/2000/svg">
<path d="M112.388 20V128.174H15L112.388 20Z" fill="#FF0000"/>
<path d="M114.929 20H150.166C166.251 20 179.29 33.0392 179.29 49.1238V49.1238C179.29 65.2084 166.251 78.2476 150.166 78.2476H114.929V20Z" fill="#0000FF"/>
<rect x="114.383" y="56.4376" width="1.4575" height="66.0083" transform="rotate(-90 114.383 56.4376)" fill="black"/>
<g filter="url(#filter0_d_1_199)">
<rect x="114.383" y="38.2188" width="1.4575" height="64.525" transform="rotate(-90 114.383 38.2188)" fill="black"/>
</g>
<rect width="1.68057" height="124.905" transform="matrix(0.748956 0.66262 0.675602 -0.737266 29.0874 128.73)" fill="black"/>
<rect width="1.68057" height="100.086" transform="matrix(0.748956 0.66262 0.675602 -0.737266 45.8553 128.739)" fill="black"/>
<rect width="1.68057" height="74.97" transform="matrix(0.748956 0.66262 0.675602 -0.737266 62.8236 128.528)" fill="black"/>
<rect width="1.68057" height="73.9717" transform="matrix(0.748956 0.66262 0.675602 -0.737266 77.8947 128.624)" fill="black"/>
<rect width="1.68057" height="74.3278" transform="matrix(0.748956 0.66262 0.675602 -0.737266 94.5911 128.886)" fill="black"/>
<path d="M114.929 68.2623H162.884C179.428 68.2623 192.84 81.674 192.84 98.2182V98.2182C192.84 114.762 179.428 128.174 162.884 128.174H114.929V68.2623Z" fill="#0000FF"/>
<rect x="114.383" y="92.1464" width="1.4575" height="78.6167" transform="rotate(-90 114.383 92.1464)" fill="black"/>
<rect x="114.383" y="74.6564" width="1.4575" height="68.2333" transform="rotate(-90 114.383 74.6564)" fill="black"/>
<rect x="114.383" y="109.636" width="1.4575" height="77.1333" transform="rotate(-90 114.383 109.636)" fill="black"/>
<path d="M213.68 76L233.84 31.2H242.032L262.256 76H253.552L236.208 35.616H239.536L222.256 76H213.68ZM222.96 65.632L225.2 59.104H249.392L251.632 65.632H222.96ZM267.954 76V31.2H274.802L302.898 65.696H299.506V31.2H307.762V76H300.914L272.818 41.504H276.21V76H267.954ZM319.766 76V31.2H328.086V76H319.766ZM340.204 76V31.2H348.524V68.96H371.948V76H340.204ZM396.204 76V31.2H417.196C422.572 31.2 426.668 32.2667 429.484 34.4C432.3 36.4907 433.708 39.3067 433.708 42.848C433.708 45.2373 433.153 47.2853 432.044 48.992C430.934 50.656 429.441 51.9573 427.564 52.896C425.729 53.792 423.724 54.24 421.548 54.24L422.7 51.936C425.217 51.936 427.478 52.4053 429.484 53.344C431.489 54.24 433.068 55.5627 434.22 57.312C435.414 59.0613 436.012 61.2373 436.012 63.84C436.012 67.68 434.54 70.6667 431.596 72.8C428.652 74.9333 424.278 76 418.476 76H396.204ZM404.524 69.472H417.964C421.078 69.472 423.468 68.96 425.132 67.936C426.796 66.912 427.628 65.2693 427.628 63.008C427.628 60.7893 426.796 59.168 425.132 58.144C423.468 57.0773 421.078 56.544 417.964 56.544H403.884V50.08H416.3C419.201 50.08 421.42 49.568 422.956 48.544C424.534 47.52 425.324 45.984 425.324 43.936C425.324 41.8453 424.534 40.288 422.956 39.264C421.42 38.24 419.201 37.728 416.3 37.728H404.524V69.472ZM444.891 76V31.2H463.323C467.291 31.2 470.683 31.84 473.499 33.12C476.358 34.4 478.555 36.2347 480.091 38.624C481.627 41.0133 482.395 43.8507 482.395 47.136C482.395 50.4213 481.627 53.2587 480.091 55.648C478.555 57.9947 476.358 59.808 473.499 61.088C470.683 62.3253 467.291 62.944 463.323 62.944H449.499L453.211 59.168V76H444.891ZM474.203 76L462.875 59.744H471.771L483.163 76H474.203ZM453.211 60.064L449.499 56.096H462.939C466.608 56.096 469.36 55.3067 471.195 53.728C473.072 52.1493 474.011 49.952 474.011 47.136C474.011 44.2773 473.072 42.08 471.195 40.544C469.36 39.008 466.608 38.24 462.939 38.24H449.499L453.211 34.144V60.064ZM512.696 76.64C509.197 76.64 505.976 76.064 503.032 74.912C500.088 73.76 497.528 72.16 495.352 70.112C493.176 68.0213 491.49 65.5893 490.296 62.816C489.101 60 488.504 56.928 488.504 53.6C488.504 50.272 489.101 47.2213 490.296 44.448C491.49 41.632 493.176 39.2 495.352 37.152C497.528 35.0613 500.088 33.44 503.032 32.288C505.976 31.136 509.176 30.56 512.632 30.56C516.13 30.56 519.33 31.136 522.232 32.288C525.176 33.44 527.736 35.0613 529.912 37.152C532.088 39.2 533.773 41.632 534.968 44.448C536.162 47.2213 536.76 50.272 536.76 53.6C536.76 56.928 536.162 60 534.968 62.816C533.773 65.632 532.088 68.064 529.912 70.112C527.736 72.16 525.176 73.76 522.232 74.912C519.33 76.064 516.152 76.64 512.696 76.64ZM512.632 69.344C514.893 69.344 516.984 68.96 518.904 68.192C520.824 67.424 522.488 66.336 523.896 64.928C525.304 63.4773 526.392 61.8133 527.16 59.936C527.97 58.016 528.376 55.904 528.376 53.6C528.376 51.296 527.97 49.2053 527.16 47.328C526.392 45.408 525.304 43.744 523.896 42.336C522.488 40.8853 520.824 39.776 518.904 39.008C516.984 38.24 514.893 37.856 512.632 37.856C510.37 37.856 508.28 38.24 506.36 39.008C504.482 39.776 502.818 40.8853 501.368 42.336C499.96 43.744 498.85 45.408 498.04 47.328C497.272 49.2053 496.888 51.296 496.888 53.6C496.888 55.8613 497.272 57.952 498.04 59.872C498.85 61.792 499.96 63.4773 501.368 64.928C502.776 66.336 504.44 67.424 506.36 68.192C508.28 68.96 510.37 69.344 512.632 69.344ZM554.042 76V38.24H539.194V31.2H577.21V38.24H562.362V76H554.042ZM614.942 31.2H623.262V76H614.942V31.2ZM591.774 76H583.454V31.2H591.774V76ZM615.582 56.8H591.07V49.696H615.582V56.8ZM642.946 49.824H665.218V56.672H642.946V49.824ZM643.586 69.024H668.866V76H635.266V31.2H667.97V38.176H643.586V69.024ZM678.141 76V31.2H696.573C700.541 31.2 703.933 31.84 706.749 33.12C709.608 34.4 711.805 36.2347 713.341 38.624C714.877 41.0133 715.645 43.8507 715.645 47.136C715.645 50.4213 714.877 53.2587 713.341 55.648C711.805 57.9947 709.608 59.808 706.749 61.088C703.933 62.3253 700.541 62.944 696.573 62.944H682.749L686.461 59.168V76H678.141ZM707.453 76L696.125 59.744H705.021L716.413 76H707.453ZM686.461 60.064L682.749 56.096H696.189C699.858 56.096 702.61 55.3067 704.445 53.728C706.322 52.1493 707.261 49.952 707.261 47.136C707.261 44.2773 706.322 42.08 704.445 40.544C702.61 39.008 699.858 38.24 696.189 38.24H682.749L686.461 34.144V60.064ZM738.842 76.64C735.343 76.64 731.994 76.1493 728.794 75.168C725.594 74.144 723.055 72.8427 721.178 71.264L724.058 64.8C725.85 66.208 728.068 67.3813 730.714 68.32C733.359 69.2587 736.068 69.728 738.842 69.728C741.188 69.728 743.087 69.472 744.538 68.96C745.988 68.448 747.055 67.7653 747.738 66.912C748.42 66.016 748.762 65.0133 748.762 63.904C748.762 62.5387 748.271 61.4507 747.29 60.64C746.308 59.7867 745.028 59.1253 743.45 58.656C741.914 58.144 740.186 57.6747 738.266 57.248C736.388 56.8213 734.49 56.3307 732.57 55.776C730.692 55.1787 728.964 54.432 727.385 53.536C725.85 52.5973 724.591 51.36 723.61 49.824C722.628 48.288 722.138 46.3253 722.138 43.936C722.138 41.504 722.778 39.2853 724.058 37.28C725.38 35.232 727.364 33.6107 730.01 32.416C732.698 31.1787 736.09 30.56 740.186 30.56C742.874 30.56 745.54 30.9013 748.186 31.584C750.831 32.2667 753.135 33.248 755.097 34.528L752.474 40.992C750.468 39.7973 748.399 38.9227 746.266 38.368C744.132 37.7707 742.084 37.472 740.122 37.472C737.818 37.472 735.94 37.7493 734.49 38.304C733.082 38.8587 732.036 39.584 731.354 40.48C730.714 41.376 730.394 42.4 730.394 43.552C730.394 44.9173 730.863 46.0267 731.802 46.88C732.783 47.6907 734.042 48.3307 735.578 48.8C737.156 49.2693 738.906 49.7387 740.826 50.208C742.746 50.6347 744.644 51.1253 746.522 51.68C748.442 52.2347 750.17 52.96 751.706 53.856C753.284 54.752 754.543 55.968 755.482 57.504C756.463 59.04 756.954 60.9813 756.954 63.328C756.954 65.7173 756.292 67.936 754.97 69.984C753.69 71.9893 751.706 73.6107 749.018 74.848C746.33 76.0427 742.938 76.64 738.842 76.64Z" fill="#FF0000"/>
<path d="M214.292 102L217.417 89.5H221.25C222.046 89.5 222.699 89.7407 223.208 90.2222C223.718 90.7037 223.972 91.3148 223.972 92.0556C223.972 92.5926 223.838 93.0972 223.569 93.5694C223.301 94.0417 222.949 94.4213 222.514 94.7083C222.894 95.0324 223.19 95.4259 223.403 95.8889C223.625 96.3519 223.736 96.8565 223.736 97.4028C223.736 98.0139 223.602 98.5972 223.333 99.1528C223.074 99.6991 222.718 100.185 222.264 100.611C221.819 101.037 221.306 101.375 220.722 101.625C220.139 101.875 219.528 102 218.889 102H214.292ZM217.264 99.75H218.694C219.13 99.75 219.528 99.6389 219.889 99.4167C220.259 99.1944 220.556 98.8981 220.778 98.5278C221.009 98.1574 221.125 97.7593 221.125 97.3333C221.125 96.7963 220.944 96.3565 220.583 96.0139C220.231 95.6713 219.769 95.5 219.194 95.5H218.333L217.264 99.75ZM218.778 93.75H220.25C220.62 93.75 220.944 93.6157 221.222 93.3472C221.5 93.0694 221.639 92.7454 221.639 92.375C221.639 92.0694 221.537 91.8194 221.333 91.625C221.13 91.4306 220.866 91.3333 220.542 91.3333H219.375L218.778 93.75ZM227.618 102.278C226.868 102.278 226.271 102.093 225.827 101.722C225.392 101.343 225.105 100.861 224.966 100.278C224.836 99.6852 224.85 99.0648 225.007 98.4167L226.202 93.6667H228.618L227.424 98.3889C227.304 98.8889 227.345 99.3287 227.549 99.7083C227.753 100.088 228.123 100.278 228.66 100.278C229.077 100.278 229.466 100.139 229.827 99.8611C230.197 99.5741 230.456 99.1296 230.605 98.5278L231.841 93.6667H234.257L232.174 102H230.007L230.216 101.111C229.855 101.509 229.447 101.806 228.993 102C228.549 102.185 228.091 102.278 227.618 102.278ZM234.039 102L236.123 93.6667H238.539L236.456 102H234.039ZM237.803 92.4583C237.489 92.4583 237.22 92.3519 236.998 92.1389C236.776 91.9259 236.664 91.6528 236.664 91.3194C236.664 90.9398 236.808 90.6065 237.095 90.3194C237.391 90.0231 237.729 89.875 238.109 89.875C238.433 89.875 238.702 89.9861 238.914 90.2083C239.137 90.4213 239.248 90.6898 239.248 91.0139C239.248 91.3935 239.1 91.7315 238.803 92.0278C238.516 92.3148 238.183 92.4583 237.803 92.4583ZM238.336 102L241.67 88.6667H244.086L240.753 102H238.336ZM246.73 102.194C246.073 102.194 245.476 102.032 244.939 101.708C244.411 101.375 243.994 100.926 243.689 100.361C243.383 99.787 243.23 99.1481 243.23 98.4444C243.23 97.7778 243.365 97.1481 243.633 96.5556C243.902 95.9537 244.263 95.4213 244.717 94.9583C245.18 94.4954 245.703 94.1343 246.286 93.875C246.869 93.6065 247.476 93.4722 248.105 93.4722C248.568 93.4722 249.008 93.5463 249.425 93.6944C249.851 93.8426 250.221 94.0509 250.536 94.3194L251.967 88.6667H254.383L251.05 102H248.967L249.147 101.292C248.814 101.56 248.443 101.778 248.036 101.944C247.629 102.111 247.193 102.194 246.73 102.194ZM247.397 100.069C247.842 100.069 248.249 99.9537 248.619 99.7222C248.99 99.4815 249.286 99.1713 249.508 98.7917C249.73 98.4028 249.842 97.9907 249.842 97.5556C249.842 97.1852 249.758 96.8565 249.592 96.5694C249.434 96.2731 249.212 96.0417 248.925 95.875C248.638 95.6991 248.305 95.6111 247.925 95.6111C247.48 95.6111 247.073 95.7315 246.703 95.9722C246.332 96.2037 246.036 96.5093 245.814 96.8889C245.592 97.2685 245.48 97.6759 245.48 98.1111C245.48 98.4722 245.559 98.8009 245.717 99.0972C245.883 99.3935 246.11 99.6296 246.397 99.8056C246.693 99.9815 247.027 100.069 247.397 100.069ZM252.907 102L254.99 93.6667H257.407L255.323 102H252.907ZM256.671 92.4583C256.356 92.4583 256.087 92.3519 255.865 92.1389C255.643 91.9259 255.532 91.6528 255.532 91.3194C255.532 90.9398 255.675 90.6065 255.962 90.3194C256.259 90.0231 256.596 89.875 256.976 89.875C257.3 89.875 257.569 89.9861 257.782 90.2083C258.004 90.4213 258.115 90.6898 258.115 91.0139C258.115 91.3935 257.967 91.7315 257.671 92.0278C257.384 92.3148 257.05 92.4583 256.671 92.4583ZM257.176 102L259.259 93.6667H261.426L261.217 94.5556C261.579 94.1574 261.981 93.8657 262.426 93.6806C262.879 93.4861 263.342 93.3889 263.815 93.3889C264.565 93.3889 265.157 93.5787 265.592 93.9583C266.037 94.3287 266.329 94.8102 266.467 95.4028C266.606 95.9861 266.592 96.6019 266.426 97.25L265.231 102H262.815L264.009 97.2778C264.139 96.7778 264.097 96.338 263.884 95.9583C263.68 95.5787 263.31 95.3889 262.773 95.3889C262.356 95.3889 261.967 95.5324 261.606 95.8194C261.245 96.0972 260.986 96.537 260.829 97.1389L259.592 102H257.176ZM270.152 106.389C269.773 106.389 269.351 106.343 268.888 106.25C268.425 106.167 267.967 106.014 267.513 105.792C267.069 105.579 266.671 105.282 266.319 104.903L267.472 102.625C267.74 103.171 268.134 103.593 268.652 103.889C269.171 104.185 269.731 104.333 270.333 104.333C271.064 104.333 271.68 104.125 272.18 103.708C272.689 103.292 273.032 102.745 273.208 102.069L273.402 101.319C273.078 101.579 272.717 101.792 272.319 101.958C271.921 102.116 271.49 102.194 271.027 102.194C270.37 102.194 269.773 102.032 269.236 101.708C268.708 101.375 268.291 100.926 267.986 100.361C267.68 99.787 267.527 99.1481 267.527 98.4444C267.527 97.7778 267.662 97.1481 267.93 96.5556C268.199 95.9537 268.56 95.4213 269.013 94.9583C269.476 94.4954 270 94.1343 270.583 93.875C271.166 93.6065 271.773 93.4722 272.402 93.4722C272.939 93.4722 273.439 93.5694 273.902 93.7639C274.375 93.9491 274.777 94.2176 275.111 94.5694L275.333 93.6667H277.416L275.18 102.667C274.986 103.472 274.629 104.153 274.111 104.708C273.601 105.264 273 105.681 272.305 105.958C271.62 106.245 270.902 106.389 270.152 106.389ZM271.694 100.069C272.138 100.069 272.546 99.9537 272.916 99.7222C273.287 99.4815 273.583 99.1713 273.805 98.7917C274.027 98.4028 274.138 97.9907 274.138 97.5556C274.138 97.1852 274.055 96.8565 273.888 96.5694C273.731 96.2731 273.509 96.0417 273.222 95.875C272.935 95.6991 272.601 95.6111 272.222 95.6111C271.777 95.6111 271.37 95.7315 271 95.9722C270.629 96.2037 270.333 96.5093 270.111 96.8889C269.888 97.2685 269.777 97.6759 269.777 98.1111C269.777 98.4722 269.856 98.8009 270.013 99.0972C270.18 99.3935 270.407 99.6296 270.694 99.8056C270.99 99.9815 271.324 100.069 271.694 100.069ZM285.53 102.278C284.753 102.278 283.993 102.102 283.253 101.75C282.512 101.389 281.952 100.926 281.572 100.361L282.919 97.7083C283.04 98.1343 283.248 98.5231 283.544 98.875C283.841 99.2269 284.179 99.5093 284.558 99.7222C284.947 99.9259 285.341 100.028 285.739 100.028C286.063 100.028 286.354 99.9583 286.614 99.8194C286.882 99.6806 287.095 99.4954 287.253 99.2639C287.41 99.0324 287.489 98.7731 287.489 98.4861C287.489 98.2176 287.415 97.9722 287.266 97.75C287.118 97.5185 286.882 97.2731 286.558 97.0139L285.28 96C284.623 95.4722 284.16 94.9954 283.891 94.5694C283.632 94.1343 283.503 93.6435 283.503 93.0972C283.503 92.3657 283.688 91.7083 284.058 91.125C284.429 90.5417 284.929 90.0787 285.558 89.7361C286.188 89.3935 286.891 89.2222 287.669 89.2222C288.364 89.2222 289.044 89.3611 289.711 89.6389C290.387 89.9167 290.947 90.2917 291.391 90.7639L290.1 93.3611C289.813 92.787 289.424 92.3241 288.933 91.9722C288.452 91.6204 287.952 91.4444 287.433 91.4444C287.007 91.4444 286.651 91.5694 286.364 91.8194C286.077 92.0694 285.933 92.3843 285.933 92.7639C285.933 92.9861 285.998 93.1944 286.128 93.3889C286.266 93.5741 286.503 93.7917 286.836 94.0417L288.128 95.0139C288.757 95.4769 289.211 95.9537 289.489 96.4444C289.776 96.9259 289.919 97.4676 289.919 98.0694C289.919 98.838 289.72 99.5417 289.322 100.181C288.924 100.819 288.391 101.329 287.725 101.708C287.067 102.088 286.336 102.278 285.53 102.278ZM293.829 102.278C293.079 102.278 292.482 102.093 292.038 101.722C291.603 101.343 291.316 100.861 291.177 100.278C291.047 99.6852 291.061 99.0648 291.218 98.4167L292.413 93.6667H294.829L293.635 98.3889C293.515 98.8889 293.556 99.3287 293.76 99.7083C293.964 100.088 294.334 100.278 294.871 100.278C295.288 100.278 295.677 100.139 296.038 99.8611C296.408 99.5741 296.667 99.1296 296.816 98.5278L298.052 93.6667H300.468L298.385 102H296.218L296.427 101.111C296.066 101.509 295.658 101.806 295.204 102C294.76 102.185 294.302 102.278 293.829 102.278ZM304.917 102.25C304.167 102.25 303.482 102.083 302.862 101.75C302.25 101.417 301.76 100.954 301.389 100.361C301.028 99.7685 300.848 99.0926 300.848 98.3333C300.848 97.6852 300.982 97.0648 301.25 96.4722C301.528 95.8796 301.903 95.3565 302.375 94.9028C302.848 94.4398 303.389 94.0787 304 93.8194C304.621 93.5509 305.274 93.4167 305.959 93.4167C306.533 93.4167 307.051 93.5046 307.514 93.6806C307.987 93.8565 308.399 94.1019 308.75 94.4167L307.57 96.8194C307.44 96.4491 307.213 96.1481 306.889 95.9167C306.565 95.6852 306.167 95.5694 305.695 95.5694C305.223 95.5694 304.792 95.6898 304.403 95.9306C304.014 96.1713 303.704 96.4861 303.473 96.875C303.25 97.2546 303.139 97.6667 303.139 98.1111C303.139 98.6759 303.325 99.1481 303.695 99.5278C304.065 99.8981 304.556 100.083 305.167 100.083C305.787 100.083 306.315 99.9213 306.75 99.5972C307.186 99.2731 307.491 98.9537 307.667 98.6389V101.389C307.315 101.676 306.899 101.889 306.417 102.028C305.945 102.176 305.445 102.25 304.917 102.25ZM313.257 102.25C312.507 102.25 311.822 102.083 311.201 101.75C310.59 101.417 310.1 100.954 309.729 100.361C309.368 99.7685 309.188 99.0926 309.188 98.3333C309.188 97.6852 309.322 97.0648 309.59 96.4722C309.868 95.8796 310.243 95.3565 310.715 94.9028C311.188 94.4398 311.729 94.0787 312.34 93.8194C312.961 93.5509 313.613 93.4167 314.299 93.4167C314.873 93.4167 315.391 93.5046 315.854 93.6806C316.326 93.8565 316.738 94.1019 317.09 94.4167L315.91 96.8194C315.78 96.4491 315.553 96.1481 315.229 95.9167C314.905 95.6852 314.507 95.5694 314.035 95.5694C313.563 95.5694 313.132 95.6898 312.743 95.9306C312.354 96.1713 312.044 96.4861 311.812 96.875C311.59 97.2546 311.479 97.6667 311.479 98.1111C311.479 98.6759 311.664 99.1481 312.035 99.5278C312.405 99.8981 312.896 100.083 313.507 100.083C314.127 100.083 314.655 99.9213 315.09 99.5972C315.525 99.2731 315.831 98.9537 316.007 98.6389V101.389C315.655 101.676 315.238 101.889 314.757 102.028C314.285 102.176 313.785 102.25 313.257 102.25ZM321.75 102.278C320.944 102.278 320.222 102.106 319.583 101.764C318.944 101.412 318.439 100.94 318.069 100.347C317.708 99.7546 317.527 99.0833 317.527 98.3333C317.527 97.6667 317.662 97.037 317.93 96.4444C318.208 95.8426 318.588 95.3148 319.069 94.8611C319.55 94.3981 320.106 94.037 320.736 93.7778C321.365 93.5185 322.032 93.3889 322.736 93.3889C323.606 93.3889 324.333 93.5833 324.916 93.9722C325.509 94.3611 325.921 94.8889 326.152 95.5556C326.393 96.2222 326.407 96.9769 326.194 97.8194L326.013 98.5417H320.93C320.754 98.5417 320.578 98.5324 320.402 98.5139C320.226 98.4954 320.041 98.4676 319.847 98.4306C319.93 99.0139 320.162 99.4676 320.541 99.7917C320.93 100.116 321.412 100.278 321.986 100.278C322.467 100.278 322.953 100.153 323.444 99.9028C323.935 99.6528 324.291 99.3519 324.513 99V101.389C324.171 101.657 323.754 101.87 323.263 102.028C322.782 102.194 322.277 102.278 321.75 102.278ZM319.847 96.9722C320.412 96.8519 320.916 96.7917 321.361 96.7917H322.833C323.083 96.7917 323.314 96.8009 323.527 96.8194C323.75 96.838 323.963 96.8704 324.166 96.9167C324.129 96.4167 323.949 96.0278 323.625 95.75C323.31 95.463 322.879 95.3194 322.333 95.3194C321.768 95.3194 321.263 95.4722 320.819 95.7778C320.375 96.0833 320.05 96.4815 319.847 96.9722ZM329.631 102.278C328.983 102.278 328.363 102.139 327.77 101.861C327.187 101.583 326.747 101.236 326.451 100.819L327.603 98.6389C327.816 99.1204 328.15 99.5278 328.603 99.8611C329.066 100.194 329.525 100.361 329.978 100.361C330.256 100.361 330.474 100.301 330.631 100.181C330.798 100.051 330.881 99.8843 330.881 99.6806C330.881 99.5231 330.839 99.3935 330.756 99.2917C330.673 99.1806 330.529 99.0694 330.326 98.9583L329.27 98.375C328.798 98.1065 328.437 97.8102 328.187 97.4861C327.937 97.1528 327.812 96.7593 327.812 96.3056C327.812 95.7963 327.96 95.3241 328.256 94.8889C328.562 94.4444 328.969 94.0833 329.478 93.8056C329.988 93.5278 330.548 93.3889 331.159 93.3889C331.761 93.3889 332.321 93.5231 332.839 93.7917C333.367 94.0509 333.761 94.3796 334.02 94.7778L332.937 96.875C332.705 96.412 332.386 96.037 331.978 95.75C331.571 95.4537 331.168 95.3056 330.77 95.3056C330.511 95.3056 330.302 95.3657 330.145 95.4861C329.997 95.6065 329.923 95.7593 329.923 95.9444C329.923 96.0833 329.96 96.2037 330.034 96.3056C330.117 96.4074 330.242 96.5046 330.409 96.5972L331.367 97.125C331.997 97.4676 332.441 97.8056 332.701 98.1389C332.96 98.4722 333.089 98.8611 333.089 99.3056C333.089 99.8241 332.932 100.31 332.617 100.764C332.312 101.218 331.895 101.583 331.367 101.861C330.849 102.139 330.27 102.278 329.631 102.278ZM336.994 102.278C336.346 102.278 335.726 102.139 335.133 101.861C334.55 101.583 334.11 101.236 333.814 100.819L334.967 98.6389C335.18 99.1204 335.513 99.5278 335.967 99.8611C336.43 100.194 336.888 100.361 337.342 100.361C337.619 100.361 337.837 100.301 337.994 100.181C338.161 100.051 338.244 99.8843 338.244 99.6806C338.244 99.5231 338.203 99.3935 338.119 99.2917C338.036 99.1806 337.893 99.0694 337.689 98.9583L336.633 98.375C336.161 98.1065 335.8 97.8102 335.55 97.4861C335.3 97.1528 335.175 96.7593 335.175 96.3056C335.175 95.7963 335.323 95.3241 335.619 94.8889C335.925 94.4444 336.332 94.0833 336.842 93.8056C337.351 93.5278 337.911 93.3889 338.522 93.3889C339.124 93.3889 339.684 93.5231 340.203 93.7917C340.73 94.0509 341.124 94.3796 341.383 94.7778L340.3 96.875C340.068 96.412 339.749 96.037 339.342 95.75C338.934 95.4537 338.531 95.3056 338.133 95.3056C337.874 95.3056 337.666 95.3657 337.508 95.4861C337.36 95.6065 337.286 95.7593 337.286 95.9444C337.286 96.0833 337.323 96.2037 337.397 96.3056C337.48 96.4074 337.605 96.5046 337.772 96.5972L338.73 97.125C339.36 97.4676 339.805 97.8056 340.064 98.1389C340.323 98.4722 340.453 98.8611 340.453 99.3056C340.453 99.8241 340.295 100.31 339.98 100.764C339.675 101.218 339.258 101.583 338.73 101.861C338.212 102.139 337.633 102.278 336.994 102.278ZM347.615 91.75L348.171 89.5H356.865L356.309 91.75H353.254L350.684 102H348.101L350.671 91.75H347.615ZM355.242 102L358.576 88.6667H360.992L359.603 94.2361C359.937 93.9491 360.298 93.7361 360.687 93.5972C361.076 93.4583 361.474 93.3889 361.881 93.3889C362.631 93.3889 363.224 93.5787 363.659 93.9583C364.103 94.3287 364.395 94.8102 364.534 95.4028C364.673 95.9861 364.659 96.6019 364.492 97.25L363.298 102H360.881L362.076 97.2778C362.205 96.7778 362.163 96.338 361.951 95.9583C361.747 95.5787 361.376 95.3889 360.839 95.3889C360.423 95.3889 360.029 95.5324 359.659 95.8194C359.298 96.0972 359.043 96.537 358.895 97.1389L357.659 102H355.242ZM364.969 102L367.052 93.6667H369.219L368.899 94.9583C369.307 94.5139 369.76 94.1759 370.26 93.9444C370.76 93.7037 371.293 93.5833 371.858 93.5833V95.7222C371.691 95.6667 371.497 95.6389 371.274 95.6389C370.598 95.6389 369.992 95.875 369.455 96.3472C368.918 96.8102 368.529 97.5231 368.288 98.4861L367.385 102H364.969ZM375.693 102.278C374.971 102.278 374.304 102.111 373.693 101.778C373.091 101.435 372.61 100.968 372.249 100.375C371.888 99.7731 371.707 99.0926 371.707 98.3333C371.707 97.6852 371.841 97.0648 372.11 96.4722C372.378 95.8796 372.749 95.3519 373.221 94.8889C373.693 94.4259 374.23 94.0602 374.832 93.7917C375.434 93.5231 376.068 93.3889 376.735 93.3889C377.494 93.3889 378.17 93.5648 378.763 93.9167C379.364 94.2593 379.837 94.7269 380.179 95.3194C380.531 95.912 380.707 96.5741 380.707 97.3056C380.707 97.9537 380.568 98.5787 380.29 99.1806C380.022 99.7731 379.651 100.306 379.179 100.778C378.716 101.241 378.184 101.606 377.582 101.875C376.98 102.144 376.351 102.278 375.693 102.278ZM375.943 100.111C376.397 100.111 376.809 99.9907 377.179 99.75C377.55 99.5093 377.846 99.1944 378.068 98.8056C378.3 98.4074 378.415 97.9907 378.415 97.5556C378.415 97 378.235 96.5278 377.874 96.1389C377.513 95.75 377.045 95.5556 376.471 95.5556C376.026 95.5556 375.614 95.6759 375.235 95.9167C374.864 96.1574 374.564 96.4722 374.332 96.8611C374.11 97.25 373.999 97.6667 373.999 98.1111C373.999 98.6759 374.179 99.1528 374.54 99.5417C374.911 99.9213 375.378 100.111 375.943 100.111ZM384.415 102.278C383.665 102.278 383.068 102.093 382.624 101.722C382.189 101.343 381.901 100.861 381.763 100.278C381.633 99.6852 381.647 99.0648 381.804 98.4167L382.999 93.6667H385.415L384.221 98.3889C384.101 98.8889 384.142 99.3287 384.346 99.7083C384.55 100.088 384.92 100.278 385.457 100.278C385.874 100.278 386.263 100.139 386.624 99.8611C386.994 99.5741 387.253 99.1296 387.401 98.5278L388.638 93.6667H391.054L388.971 102H386.804L387.013 101.111C386.651 101.509 386.244 101.806 385.79 102C385.346 102.185 384.888 102.278 384.415 102.278ZM394.059 106.389C393.679 106.389 393.258 106.343 392.795 106.25C392.332 106.167 391.873 106.014 391.42 105.792C390.975 105.579 390.577 105.282 390.225 104.903L391.378 102.625C391.647 103.171 392.04 103.593 392.559 103.889C393.077 104.185 393.637 104.333 394.239 104.333C394.971 104.333 395.586 104.125 396.086 103.708C396.596 103.292 396.938 102.745 397.114 102.069L397.309 101.319C396.985 101.579 396.623 101.792 396.225 101.958C395.827 102.116 395.397 102.194 394.934 102.194C394.276 102.194 393.679 102.032 393.142 101.708C392.614 101.375 392.197 100.926 391.892 100.361C391.586 99.787 391.434 99.1481 391.434 98.4444C391.434 97.7778 391.568 97.1481 391.836 96.5556C392.105 95.9537 392.466 95.4213 392.92 94.9583C393.383 94.4954 393.906 94.1343 394.489 93.875C395.072 93.6065 395.679 93.4722 396.309 93.4722C396.846 93.4722 397.346 93.5694 397.809 93.7639C398.281 93.9491 398.684 94.2176 399.017 94.5694L399.239 93.6667H401.322L399.086 102.667C398.892 103.472 398.535 104.153 398.017 104.708C397.508 105.264 396.906 105.681 396.211 105.958C395.526 106.245 394.809 106.389 394.059 106.389ZM395.6 100.069C396.045 100.069 396.452 99.9537 396.822 99.7222C397.193 99.4815 397.489 99.1713 397.711 98.7917C397.934 98.4028 398.045 97.9907 398.045 97.5556C398.045 97.1852 397.961 96.8565 397.795 96.5694C397.637 96.2731 397.415 96.0417 397.128 95.875C396.841 95.6991 396.508 95.6111 396.128 95.6111C395.684 95.6111 395.276 95.7315 394.906 95.9722C394.535 96.2037 394.239 96.5093 394.017 96.8889C393.795 97.2685 393.684 97.6759 393.684 98.1111C393.684 98.4722 393.762 98.8009 393.92 99.0972C394.086 99.3935 394.313 99.6296 394.6 99.8056C394.897 99.9815 395.23 100.069 395.6 100.069ZM401.082 102L404.415 88.6667H406.832L405.443 94.2361C405.776 93.9491 406.138 93.7361 406.526 93.5972C406.915 93.4583 407.314 93.3889 407.721 93.3889C408.471 93.3889 409.064 93.5787 409.499 93.9583C409.943 94.3287 410.235 94.8102 410.374 95.4028C410.513 95.9861 410.499 96.6019 410.332 97.25L409.138 102H406.721L407.915 97.2778C408.045 96.7778 408.003 96.338 407.79 95.9583C407.587 95.5787 407.216 95.3889 406.679 95.3889C406.263 95.3889 405.869 95.5324 405.499 95.8194C405.138 96.0972 404.883 96.537 404.735 97.1389L403.499 102H401.082ZM415.469 102L418.594 89.5H421.177L418.052 102H415.469ZM420.379 102L422.462 93.6667H424.629L424.421 94.5556C424.782 94.1574 425.184 93.8657 425.629 93.6806C426.083 93.4861 426.546 93.3889 427.018 93.3889C427.768 93.3889 428.36 93.5787 428.796 93.9583C429.24 94.3287 429.532 94.8102 429.671 95.4028C429.809 95.9861 429.796 96.6019 429.629 97.25L428.434 102H426.018L427.212 97.2778C427.342 96.7778 427.3 96.338 427.087 95.9583C426.884 95.5787 426.513 95.3889 425.976 95.3889C425.559 95.3889 425.171 95.5324 424.809 95.8194C424.448 96.0972 424.189 96.537 424.032 97.1389L422.796 102H420.379ZM430.105 102L432.189 93.6667H434.355L434.147 94.5556C434.508 94.1574 434.911 93.8657 435.355 93.6806C435.809 93.4861 436.272 93.3889 436.744 93.3889C437.494 93.3889 438.087 93.5787 438.522 93.9583C438.967 94.3287 439.258 94.8102 439.397 95.4028C439.536 95.9861 439.522 96.6019 439.355 97.25L438.161 102H435.744L436.939 97.2778C437.068 96.7778 437.027 96.338 436.814 95.9583C436.61 95.5787 436.24 95.3889 435.703 95.3889C435.286 95.3889 434.897 95.5324 434.536 95.8194C434.175 96.0972 433.916 96.537 433.758 97.1389L432.522 102H430.105ZM444.443 102.278C443.721 102.278 443.054 102.111 442.443 101.778C441.841 101.435 441.36 100.968 440.999 100.375C440.638 99.7731 440.457 99.0926 440.457 98.3333C440.457 97.6852 440.591 97.0648 440.86 96.4722C441.128 95.8796 441.499 95.3519 441.971 94.8889C442.443 94.4259 442.98 94.0602 443.582 93.7917C444.184 93.5231 444.818 93.3889 445.485 93.3889C446.244 93.3889 446.92 93.5648 447.513 93.9167C448.114 94.2593 448.587 94.7269 448.929 95.3194C449.281 95.912 449.457 96.5741 449.457 97.3056C449.457 97.9537 449.318 98.5787 449.04 99.1806C448.772 99.7731 448.401 100.306 447.929 100.778C447.466 101.241 446.934 101.606 446.332 101.875C445.73 102.144 445.101 102.278 444.443 102.278ZM444.693 100.111C445.147 100.111 445.559 99.9907 445.929 99.75C446.3 99.5093 446.596 99.1944 446.818 98.8056C447.05 98.4074 447.165 97.9907 447.165 97.5556C447.165 97 446.985 96.5278 446.624 96.1389C446.263 95.75 445.795 95.5556 445.221 95.5556C444.776 95.5556 444.364 95.6759 443.985 95.9167C443.614 96.1574 443.314 96.4722 443.082 96.8611C442.86 97.25 442.749 97.6667 442.749 98.1111C442.749 98.6759 442.929 99.1528 443.29 99.5417C443.661 99.9213 444.128 100.111 444.693 100.111ZM452.645 102.417L450.242 93.6667H452.756L453.395 96.3472C453.451 96.5787 453.501 96.8102 453.548 97.0417C453.603 97.2639 453.645 97.5185 453.673 97.8056C453.849 97.5185 454.015 97.2639 454.173 97.0417C454.33 96.8102 454.497 96.5787 454.673 96.3472L456.645 93.6667H459.381L452.645 102.417ZM462.277 102.194C461.62 102.194 461.023 102.032 460.486 101.708C459.958 101.375 459.541 100.926 459.236 100.361C458.93 99.787 458.777 99.1481 458.777 98.4444C458.777 97.7778 458.912 97.1481 459.18 96.5556C459.449 95.9537 459.81 95.4213 460.263 94.9583C460.726 94.4954 461.25 94.1343 461.833 93.875C462.416 93.6065 463.023 93.4722 463.652 93.4722C464.189 93.4722 464.689 93.5694 465.152 93.7639C465.625 93.9491 466.027 94.2176 466.361 94.5694L466.583 93.6667H468.666L466.597 102H464.513L464.694 101.292C464.361 101.56 463.99 101.778 463.583 101.944C463.175 102.111 462.74 102.194 462.277 102.194ZM462.944 100.069C463.388 100.069 463.796 99.9537 464.166 99.7222C464.537 99.4815 464.833 99.1713 465.055 98.7917C465.277 98.4028 465.388 97.9907 465.388 97.5556C465.388 97.1852 465.305 96.8565 465.138 96.5694C464.981 96.2731 464.759 96.0417 464.472 95.875C464.185 95.6991 463.851 95.6111 463.472 95.6111C463.027 95.6111 462.62 95.7315 462.25 95.9722C461.879 96.2037 461.583 96.5093 461.361 96.8889C461.138 97.2685 461.027 97.6759 461.027 98.1111C461.027 98.4722 461.106 98.8009 461.263 99.0972C461.43 99.3935 461.657 99.6296 461.944 99.8056C462.24 99.9815 462.574 100.069 462.944 100.069ZM469.398 102L471.009 95.5833H469.454L469.926 93.6667H471.523L472.217 90.8889H474.551L473.87 93.6667H475.509L475.037 95.5833H473.426L471.815 102H469.398ZM474.704 102L476.787 93.6667H479.204L477.12 102H474.704ZM478.467 92.4583C478.153 92.4583 477.884 92.3519 477.662 92.1389C477.44 91.9259 477.329 91.6528 477.329 91.3194C477.329 90.9398 477.472 90.6065 477.759 90.3194C478.055 90.0231 478.393 89.875 478.773 89.875C479.097 89.875 479.366 89.9861 479.579 90.2083C479.801 90.4213 479.912 90.6898 479.912 91.0139C479.912 91.3935 479.764 91.7315 479.467 92.0278C479.18 92.3148 478.847 92.4583 478.467 92.4583ZM482.625 102.417L480.223 93.6667H482.737L483.375 96.3472C483.431 96.5787 483.482 96.8102 483.528 97.0417C483.584 97.2639 483.625 97.5185 483.653 97.8056C483.829 97.5185 483.996 97.2639 484.153 97.0417C484.311 96.8102 484.477 96.5787 484.653 96.3472L486.625 93.6667H489.362L482.625 102.417ZM492.98 102.278C492.174 102.278 491.452 102.106 490.813 101.764C490.174 101.412 489.67 100.94 489.299 100.347C488.938 99.7546 488.758 99.0833 488.758 98.3333C488.758 97.6667 488.892 97.037 489.161 96.4444C489.438 95.8426 489.818 95.3148 490.299 94.8611C490.781 94.3981 491.337 94.037 491.966 93.7778C492.596 93.5185 493.262 93.3889 493.966 93.3889C494.837 93.3889 495.563 93.5833 496.147 93.9722C496.739 94.3611 497.151 94.8889 497.383 95.5556C497.624 96.2222 497.637 96.9769 497.424 97.8194L497.244 98.5417H492.161C491.985 98.5417 491.809 98.5324 491.633 98.5139C491.457 98.4954 491.272 98.4676 491.077 98.4306C491.161 99.0139 491.392 99.4676 491.772 99.7917C492.161 100.116 492.642 100.278 493.216 100.278C493.698 100.278 494.184 100.153 494.674 99.9028C495.165 99.6528 495.522 99.3519 495.744 99V101.389C495.401 101.657 494.985 101.87 494.494 102.028C494.012 102.194 493.508 102.278 492.98 102.278ZM491.077 96.9722C491.642 96.8519 492.147 96.7917 492.591 96.7917H494.063C494.313 96.7917 494.545 96.8009 494.758 96.8194C494.98 96.838 495.193 96.8704 495.397 96.9167C495.36 96.4167 495.179 96.0278 494.855 95.75C494.54 95.463 494.11 95.3194 493.563 95.3194C492.999 95.3194 492.494 95.4722 492.049 95.7778C491.605 96.0833 491.281 96.4815 491.077 96.9722ZM502.299 102L505.424 89.5H512.091L511.549 91.6667H507.299L506.827 93.5833H510.105L509.591 95.6667H506.299L505.272 99.75H509.522L508.966 102H502.299ZM510.633 102L512.716 93.6667H514.883L514.674 94.5556C515.036 94.1574 515.438 93.8657 515.883 93.6806C516.337 93.4861 516.799 93.3889 517.272 93.3889C518.022 93.3889 518.614 93.5787 519.049 93.9583C519.494 94.3287 519.786 94.8102 519.924 95.4028C520.063 95.9861 520.049 96.6019 519.883 97.25L518.688 102H516.272L517.466 97.2778C517.596 96.7778 517.554 96.338 517.341 95.9583C517.137 95.5787 516.767 95.3889 516.23 95.3889C515.813 95.3889 515.424 95.5324 515.063 95.8194C514.702 96.0972 514.443 96.537 514.286 97.1389L513.049 102H510.633ZM523.609 106.389C523.23 106.389 522.808 106.343 522.345 106.25C521.883 106.167 521.424 106.014 520.97 105.792C520.526 105.579 520.128 105.282 519.776 104.903L520.929 102.625C521.197 103.171 521.591 103.593 522.109 103.889C522.628 104.185 523.188 104.333 523.79 104.333C524.521 104.333 525.137 104.125 525.637 103.708C526.146 103.292 526.489 102.745 526.665 102.069L526.859 101.319C526.535 101.579 526.174 101.792 525.776 101.958C525.378 102.116 524.947 102.194 524.484 102.194C523.827 102.194 523.23 102.032 522.693 101.708C522.165 101.375 521.748 100.926 521.443 100.361C521.137 99.787 520.984 99.1481 520.984 98.4444C520.984 97.7778 521.119 97.1481 521.387 96.5556C521.656 95.9537 522.017 95.4213 522.47 94.9583C522.933 94.4954 523.457 94.1343 524.04 93.875C524.623 93.6065 525.23 93.4722 525.859 93.4722C526.396 93.4722 526.896 93.5694 527.359 93.7639C527.832 93.9491 528.234 94.2176 528.568 94.5694L528.79 93.6667H530.873L528.637 102.667C528.443 103.472 528.086 104.153 527.568 104.708C527.058 105.264 526.457 105.681 525.762 105.958C525.077 106.245 524.359 106.389 523.609 106.389ZM525.151 100.069C525.595 100.069 526.003 99.9537 526.373 99.7222C526.744 99.4815 527.04 99.1713 527.262 98.7917C527.484 98.4028 527.595 97.9907 527.595 97.5556C527.595 97.1852 527.512 96.8565 527.345 96.5694C527.188 96.2731 526.966 96.0417 526.679 95.875C526.392 95.6991 526.058 95.6111 525.679 95.6111C525.234 95.6111 524.827 95.7315 524.457 95.9722C524.086 96.2037 523.79 96.5093 523.568 96.8889C523.345 97.2685 523.234 97.6759 523.234 98.1111C523.234 98.4722 523.313 98.8009 523.47 99.0972C523.637 99.3935 523.864 99.6296 524.151 99.8056C524.447 99.9815 524.781 100.069 525.151 100.069ZM530.661 102L532.744 93.6667H535.161L533.077 102H530.661ZM534.424 92.4583C534.11 92.4583 533.841 92.3519 533.619 92.1389C533.397 91.9259 533.286 91.6528 533.286 91.3194C533.286 90.9398 533.429 90.6065 533.716 90.3194C534.012 90.0231 534.35 89.875 534.73 89.875C535.054 89.875 535.323 89.9861 535.536 90.2083C535.758 90.4213 535.869 90.6898 535.869 91.0139C535.869 91.3935 535.721 91.7315 535.424 92.0278C535.137 92.3148 534.804 92.4583 534.424 92.4583ZM534.93 102L537.013 93.6667H539.18L538.971 94.5556C539.332 94.1574 539.735 93.8657 540.18 93.6806C540.633 93.4861 541.096 93.3889 541.569 93.3889C542.319 93.3889 542.911 93.5787 543.346 93.9583C543.791 94.3287 544.082 94.8102 544.221 95.4028C544.36 95.9861 544.346 96.6019 544.18 97.25L542.985 102H540.569L541.763 97.2778C541.893 96.7778 541.851 96.338 541.638 95.9583C541.434 95.5787 541.064 95.3889 540.527 95.3889C540.11 95.3889 539.721 95.5324 539.36 95.8194C538.999 96.0972 538.74 96.537 538.582 97.1389L537.346 102H534.93ZM549.503 102.278C548.698 102.278 547.976 102.106 547.337 101.764C546.698 101.412 546.193 100.94 545.823 100.347C545.462 99.7546 545.281 99.0833 545.281 98.3333C545.281 97.6667 545.416 97.037 545.684 96.4444C545.962 95.8426 546.341 95.3148 546.823 94.8611C547.304 94.3981 547.86 94.037 548.49 93.7778C549.119 93.5185 549.786 93.3889 550.49 93.3889C551.36 93.3889 552.087 93.5833 552.67 93.9722C553.263 94.3611 553.675 94.8889 553.906 95.5556C554.147 96.2222 554.161 96.9769 553.948 97.8194L553.767 98.5417H548.684C548.508 98.5417 548.332 98.5324 548.156 98.5139C547.98 98.4954 547.795 98.4676 547.601 98.4306C547.684 99.0139 547.916 99.4676 548.295 99.7917C548.684 100.116 549.166 100.278 549.74 100.278C550.221 100.278 550.707 100.153 551.198 99.9028C551.689 99.6528 552.045 99.3519 552.267 99V101.389C551.925 101.657 551.508 101.87 551.017 102.028C550.536 102.194 550.031 102.278 549.503 102.278ZM547.601 96.9722C548.166 96.8519 548.67 96.7917 549.115 96.7917H550.587C550.837 96.7917 551.068 96.8009 551.281 96.8194C551.503 96.838 551.716 96.8704 551.92 96.9167C551.883 96.4167 551.703 96.0278 551.378 95.75C551.064 95.463 550.633 95.3194 550.087 95.3194C549.522 95.3194 549.017 95.4722 548.573 95.7778C548.128 96.0833 547.804 96.4815 547.601 96.9722ZM559.093 102.278C558.288 102.278 557.566 102.106 556.927 101.764C556.288 101.412 555.783 100.94 555.413 100.347C555.052 99.7546 554.871 99.0833 554.871 98.3333C554.871 97.6667 555.005 97.037 555.274 96.4444C555.552 95.8426 555.931 95.3148 556.413 94.8611C556.894 94.3981 557.45 94.037 558.079 93.7778C558.709 93.5185 559.376 93.3889 560.079 93.3889C560.95 93.3889 561.677 93.5833 562.26 93.9722C562.853 94.3611 563.265 94.8889 563.496 95.5556C563.737 96.2222 563.751 96.9769 563.538 97.8194L563.357 98.5417H558.274C558.098 98.5417 557.922 98.5324 557.746 98.5139C557.57 98.4954 557.385 98.4676 557.191 98.4306C557.274 99.0139 557.505 99.4676 557.885 99.7917C558.274 100.116 558.755 100.278 559.329 100.278C559.811 100.278 560.297 100.153 560.788 99.9028C561.279 99.6528 561.635 99.3519 561.857 99V101.389C561.515 101.657 561.098 101.87 560.607 102.028C560.126 102.194 559.621 102.278 559.093 102.278ZM557.191 96.9722C557.755 96.8519 558.26 96.7917 558.704 96.7917H560.177C560.427 96.7917 560.658 96.8009 560.871 96.8194C561.093 96.838 561.306 96.8704 561.51 96.9167C561.473 96.4167 561.292 96.0278 560.968 95.75C560.654 95.463 560.223 95.3194 559.677 95.3194C559.112 95.3194 558.607 95.4722 558.163 95.7778C557.718 96.0833 557.394 96.4815 557.191 96.9722ZM563.836 102L565.919 93.6667H568.086L567.766 94.9583C568.174 94.5139 568.628 94.1759 569.128 93.9444C569.628 93.7037 570.16 93.5833 570.725 93.5833V95.7222C570.558 95.6667 570.364 95.6389 570.141 95.6389C569.466 95.6389 568.859 95.875 568.322 96.3472C567.785 96.8102 567.396 97.5231 567.155 98.4861L566.253 102H563.836ZM570.25 102L572.334 93.6667H574.75L572.667 102H570.25ZM574.014 92.4583C573.7 92.4583 573.431 92.3519 573.209 92.1389C572.987 91.9259 572.875 91.6528 572.875 91.3194C572.875 90.9398 573.019 90.6065 573.306 90.3194C573.602 90.0231 573.94 89.875 574.32 89.875C574.644 89.875 574.912 89.9861 575.125 90.2083C575.348 90.4213 575.459 90.6898 575.459 91.0139C575.459 91.3935 575.311 91.7315 575.014 92.0278C574.727 92.3148 574.394 92.4583 574.014 92.4583ZM574.52 102L576.603 93.6667H578.77L578.561 94.5556C578.922 94.1574 579.325 93.8657 579.77 93.6806C580.223 93.4861 580.686 93.3889 581.158 93.3889C581.908 93.3889 582.501 93.5787 582.936 93.9583C583.381 94.3287 583.672 94.8102 583.811 95.4028C583.95 95.9861 583.936 96.6019 583.77 97.25L582.575 102H580.158L581.353 97.2778C581.482 96.7778 581.441 96.338 581.228 95.9583C581.024 95.5787 580.654 95.3889 580.117 95.3889C579.7 95.3889 579.311 95.5324 578.95 95.8194C578.589 96.0972 578.33 96.537 578.172 97.1389L576.936 102H574.52ZM587.496 106.389C587.116 106.389 586.695 106.343 586.232 106.25C585.769 106.167 585.311 106.014 584.857 105.792C584.413 105.579 584.015 105.282 583.663 104.903L584.816 102.625C585.084 103.171 585.478 103.593 585.996 103.889C586.515 104.185 587.075 104.333 587.677 104.333C588.408 104.333 589.024 104.125 589.524 103.708C590.033 103.292 590.376 102.745 590.552 102.069L590.746 101.319C590.422 101.579 590.061 101.792 589.663 101.958C589.265 102.116 588.834 102.194 588.371 102.194C587.714 102.194 587.116 102.032 586.579 101.708C586.052 101.375 585.635 100.926 585.329 100.361C585.024 99.787 584.871 99.1481 584.871 98.4444C584.871 97.7778 585.005 97.1481 585.274 96.5556C585.542 95.9537 585.904 95.4213 586.357 94.9583C586.82 94.4954 587.343 94.1343 587.927 93.875C588.51 93.6065 589.116 93.4722 589.746 93.4722C590.283 93.4722 590.783 93.5694 591.246 93.7639C591.718 93.9491 592.121 94.2176 592.454 94.5694L592.677 93.6667H594.76L592.524 102.667C592.329 103.472 591.973 104.153 591.454 104.708C590.945 105.264 590.343 105.681 589.649 105.958C588.964 106.245 588.246 106.389 587.496 106.389ZM589.038 100.069C589.482 100.069 589.89 99.9537 590.26 99.7222C590.63 99.4815 590.927 99.1713 591.149 98.7917C591.371 98.4028 591.482 97.9907 591.482 97.5556C591.482 97.1852 591.399 96.8565 591.232 96.5694C591.075 96.2731 590.853 96.0417 590.566 95.875C590.279 95.6991 589.945 95.6111 589.566 95.6111C589.121 95.6111 588.714 95.7315 588.343 95.9722C587.973 96.2037 587.677 96.5093 587.454 96.8889C587.232 97.2685 587.121 97.6759 587.121 98.1111C587.121 98.4722 587.2 98.8009 587.357 99.0972C587.524 99.3935 587.751 99.6296 588.038 99.8056C588.334 99.9815 588.667 100.069 589.038 100.069ZM602.805 102.194C602.147 102.194 601.55 102.032 601.013 101.708C600.485 101.375 600.069 100.926 599.763 100.361C599.457 99.787 599.305 99.1481 599.305 98.4444C599.305 97.7778 599.439 97.1481 599.707 96.5556C599.976 95.9537 600.337 95.4213 600.791 94.9583C601.254 94.4954 601.777 94.1343 602.36 93.875C602.944 93.6065 603.55 93.4722 604.18 93.4722C604.717 93.4722 605.217 93.5694 605.68 93.7639C606.152 93.9491 606.555 94.2176 606.888 94.5694L607.11 93.6667H609.194L607.124 102H605.041L605.221 101.292C604.888 101.56 604.518 101.778 604.11 101.944C603.703 102.111 603.268 102.194 602.805 102.194ZM603.471 100.069C603.916 100.069 604.323 99.9537 604.694 99.7222C605.064 99.4815 605.36 99.1713 605.582 98.7917C605.805 98.4028 605.916 97.9907 605.916 97.5556C605.916 97.1852 605.832 96.8565 605.666 96.5694C605.508 96.2731 605.286 96.0417 604.999 95.875C604.712 95.6991 604.379 95.6111 603.999 95.6111C603.555 95.6111 603.147 95.7315 602.777 95.9722C602.407 96.2037 602.11 96.5093 601.888 96.8889C601.666 97.2685 601.555 97.6759 601.555 98.1111C601.555 98.4722 601.633 98.8009 601.791 99.0972C601.957 99.3935 602.184 99.6296 602.471 99.8056C602.768 99.9815 603.101 100.069 603.471 100.069ZM608.953 102L611.036 93.6667H613.203L612.995 94.5556C613.356 94.1574 613.759 93.8657 614.203 93.6806C614.657 93.4861 615.12 93.3889 615.592 93.3889C616.342 93.3889 616.935 93.5787 617.37 93.9583C617.814 94.3287 618.106 94.8102 618.245 95.4028C618.384 95.9861 618.37 96.6019 618.203 97.25L617.009 102H614.592L615.786 97.2778C615.916 96.7778 615.874 96.338 615.661 95.9583C615.458 95.5787 615.087 95.3889 614.55 95.3889C614.134 95.3889 613.745 95.5324 613.384 95.8194C613.023 96.0972 612.763 96.537 612.606 97.1389L611.37 102H608.953ZM622.805 102.194C622.147 102.194 621.55 102.032 621.013 101.708C620.485 101.375 620.069 100.926 619.763 100.361C619.457 99.787 619.305 99.1481 619.305 98.4444C619.305 97.7778 619.439 97.1481 619.707 96.5556C619.976 95.9537 620.337 95.4213 620.791 94.9583C621.254 94.4954 621.777 94.1343 622.36 93.875C622.944 93.6065 623.55 93.4722 624.18 93.4722C624.643 93.4722 625.082 93.5463 625.499 93.6944C625.925 93.8426 626.295 94.0509 626.61 94.3194L628.041 88.6667H630.457L627.124 102H625.041L625.221 101.292C624.888 101.56 624.518 101.778 624.11 101.944C623.703 102.111 623.268 102.194 622.805 102.194ZM623.471 100.069C623.916 100.069 624.323 99.9537 624.694 99.7222C625.064 99.4815 625.36 99.1713 625.582 98.7917C625.805 98.4028 625.916 97.9907 625.916 97.5556C625.916 97.1852 625.832 96.8565 625.666 96.5694C625.508 96.2731 625.286 96.0417 624.999 95.875C624.712 95.6991 624.379 95.6111 623.999 95.6111C623.555 95.6111 623.147 95.7315 622.777 95.9722C622.407 96.2037 622.11 96.5093 621.888 96.8889C621.666 97.2685 621.555 97.6759 621.555 98.1111C621.555 98.4722 621.633 98.8009 621.791 99.0972C621.957 99.3935 622.184 99.6296 622.471 99.8056C622.768 99.9815 623.101 100.069 623.471 100.069ZM635.349 91.75L635.905 89.5H644.599L644.044 91.75H640.988L638.419 102H635.836L638.405 91.75H635.349ZM646.164 102.278C645.358 102.278 644.636 102.106 643.997 101.764C643.358 101.412 642.853 100.94 642.483 100.347C642.122 99.7546 641.941 99.0833 641.941 98.3333C641.941 97.6667 642.076 97.037 642.344 96.4444C642.622 95.8426 643.002 95.3148 643.483 94.8611C643.965 94.3981 644.52 94.037 645.15 93.7778C645.779 93.5185 646.446 93.3889 647.15 93.3889C648.02 93.3889 648.747 93.5833 649.33 93.9722C649.923 94.3611 650.335 94.8889 650.566 95.5556C650.807 96.2222 650.821 96.9769 650.608 97.8194L650.428 98.5417H645.344C645.168 98.5417 644.992 98.5324 644.816 98.5139C644.64 98.4954 644.455 98.4676 644.261 98.4306C644.344 99.0139 644.576 99.4676 644.955 99.7917C645.344 100.116 645.826 100.278 646.4 100.278C646.881 100.278 647.367 100.153 647.858 99.9028C648.349 99.6528 648.705 99.3519 648.928 99V101.389C648.585 101.657 648.168 101.87 647.678 102.028C647.196 102.194 646.691 102.278 646.164 102.278ZM644.261 96.9722C644.826 96.8519 645.33 96.7917 645.775 96.7917H647.247C647.497 96.7917 647.728 96.8009 647.941 96.8194C648.164 96.838 648.377 96.8704 648.58 96.9167C648.543 96.4167 648.363 96.0278 648.039 95.75C647.724 95.463 647.293 95.3194 646.747 95.3194C646.182 95.3194 645.678 95.4722 645.233 95.7778C644.789 96.0833 644.465 96.4815 644.261 96.9722ZM655.601 102.25C654.851 102.25 654.166 102.083 653.545 101.75C652.934 101.417 652.443 100.954 652.073 100.361C651.712 99.7685 651.531 99.0926 651.531 98.3333C651.531 97.6852 651.666 97.0648 651.934 96.4722C652.212 95.8796 652.587 95.3565 653.059 94.9028C653.531 94.4398 654.073 94.0787 654.684 93.8194C655.304 93.5509 655.957 93.4167 656.642 93.4167C657.216 93.4167 657.735 93.5046 658.198 93.6806C658.67 93.8565 659.082 94.1019 659.434 94.4167L658.253 96.8194C658.124 96.4491 657.897 96.1481 657.573 95.9167C657.249 95.6852 656.851 95.5694 656.378 95.5694C655.906 95.5694 655.476 95.6898 655.087 95.9306C654.698 96.1713 654.388 96.4861 654.156 96.875C653.934 97.2546 653.823 97.6667 653.823 98.1111C653.823 98.6759 654.008 99.1481 654.378 99.5278C654.749 99.8981 655.24 100.083 655.851 100.083C656.471 100.083 656.999 99.9213 657.434 99.5972C657.869 99.2731 658.175 98.9537 658.351 98.6389V101.389C657.999 101.676 657.582 101.889 657.101 102.028C656.628 102.176 656.128 102.25 655.601 102.25ZM659.246 102L662.579 88.6667H664.996L663.607 94.2361C663.941 93.9491 664.302 93.7361 664.691 93.5972C665.079 93.4583 665.478 93.3889 665.885 93.3889C666.635 93.3889 667.228 93.5787 667.663 93.9583C668.107 94.3287 668.399 94.8102 668.538 95.4028C668.677 95.9861 668.663 96.6019 668.496 97.25L667.302 102H664.885L666.079 97.2778C666.209 96.7778 666.167 96.338 665.954 95.9583C665.751 95.5787 665.38 95.3889 664.843 95.3889C664.427 95.3889 664.033 95.5324 663.663 95.8194C663.302 96.0972 663.047 96.537 662.899 97.1389L661.663 102H659.246ZM668.973 102L671.056 93.6667H673.223L673.014 94.5556C673.375 94.1574 673.778 93.8657 674.223 93.6806C674.676 93.4861 675.139 93.3889 675.612 93.3889C676.362 93.3889 676.954 93.5787 677.389 93.9583C677.834 94.3287 678.125 94.8102 678.264 95.4028C678.403 95.9861 678.389 96.6019 678.223 97.25L677.028 102H674.612L675.806 97.2778C675.936 96.7778 675.894 96.338 675.681 95.9583C675.477 95.5787 675.107 95.3889 674.57 95.3889C674.153 95.3889 673.764 95.5324 673.403 95.8194C673.042 96.0972 672.783 96.537 672.625 97.1389L671.389 102H668.973ZM678.727 102L680.81 93.6667H683.227L681.144 102H678.727ZM682.491 92.4583C682.176 92.4583 681.908 92.3519 681.685 92.1389C681.463 91.9259 681.352 91.6528 681.352 91.3194C681.352 90.9398 681.496 90.6065 681.783 90.3194C682.079 90.0231 682.417 89.875 682.796 89.875C683.121 89.875 683.389 89.9861 683.602 90.2083C683.824 90.4213 683.935 90.6898 683.935 91.0139C683.935 91.3935 683.787 91.7315 683.491 92.0278C683.204 92.3148 682.871 92.4583 682.491 92.4583ZM687.691 102.25C686.941 102.25 686.255 102.083 685.635 101.75C685.024 101.417 684.533 100.954 684.163 100.361C683.802 99.7685 683.621 99.0926 683.621 98.3333C683.621 97.6852 683.755 97.0648 684.024 96.4722C684.302 95.8796 684.677 95.3565 685.149 94.9028C685.621 94.4398 686.163 94.0787 686.774 93.8194C687.394 93.5509 688.047 93.4167 688.732 93.4167C689.306 93.4167 689.825 93.5046 690.288 93.6806C690.76 93.8565 691.172 94.1019 691.524 94.4167L690.343 96.8194C690.214 96.4491 689.987 96.1481 689.663 95.9167C689.339 95.6852 688.941 95.5694 688.468 95.5694C687.996 95.5694 687.566 95.6898 687.177 95.9306C686.788 96.1713 686.478 96.4861 686.246 96.875C686.024 97.2546 685.913 97.6667 685.913 98.1111C685.913 98.6759 686.098 99.1481 686.468 99.5278C686.839 99.8981 687.329 100.083 687.941 100.083C688.561 100.083 689.089 99.9213 689.524 99.5972C689.959 99.2731 690.265 98.9537 690.441 98.6389V101.389C690.089 101.676 689.672 101.889 689.191 102.028C688.718 102.176 688.218 102.25 687.691 102.25ZM695.461 102.194C694.804 102.194 694.206 102.032 693.669 101.708C693.141 101.375 692.725 100.926 692.419 100.361C692.114 99.787 691.961 99.1481 691.961 98.4444C691.961 97.7778 692.095 97.1481 692.364 96.5556C692.632 95.9537 692.993 95.4213 693.447 94.9583C693.91 94.4954 694.433 94.1343 695.016 93.875C695.6 93.6065 696.206 93.4722 696.836 93.4722C697.373 93.4722 697.873 93.5694 698.336 93.7639C698.808 93.9491 699.211 94.2176 699.544 94.5694L699.766 93.6667H701.85L699.78 102H697.697L697.878 101.292C697.544 101.56 697.174 101.778 696.766 101.944C696.359 102.111 695.924 102.194 695.461 102.194ZM696.128 100.069C696.572 100.069 696.979 99.9537 697.35 99.7222C697.72 99.4815 698.016 99.1713 698.239 98.7917C698.461 98.4028 698.572 97.9907 698.572 97.5556C698.572 97.1852 698.489 96.8565 698.322 96.5694C698.165 96.2731 697.942 96.0417 697.655 95.875C697.368 95.6991 697.035 95.6111 696.655 95.6111C696.211 95.6111 695.804 95.7315 695.433 95.9722C695.063 96.2037 694.766 96.5093 694.544 96.8889C694.322 97.2685 694.211 97.6759 694.211 98.1111C694.211 98.4722 694.29 98.8009 694.447 99.0972C694.614 99.3935 694.841 99.6296 695.128 99.8056C695.424 99.9815 695.757 100.069 696.128 100.069ZM701.637 102L704.97 88.6667H707.387L704.054 102H701.637ZM710.483 102L713.608 89.5H720.275L719.733 91.6667H715.483L715.011 93.5833H718.289L717.775 95.6667H714.483L713.455 99.75H717.705L717.15 102H710.483ZM718.066 102L722.191 97.4722L720.4 93.6667H722.872L723.275 94.5972C723.349 94.7731 723.423 94.963 723.497 95.1667C723.571 95.3611 723.64 95.5648 723.705 95.7778C723.853 95.5648 724.006 95.3611 724.164 95.1667C724.321 94.9722 724.478 94.787 724.636 94.6111L725.469 93.6667H728.191L724.691 97.4583L726.747 102H724.191L723.441 100.208C723.386 100.079 723.326 99.9398 723.261 99.7917C723.205 99.6435 723.145 99.4815 723.08 99.3056C722.978 99.4722 722.872 99.6296 722.761 99.7778C722.65 99.9167 722.539 100.051 722.428 100.181L720.844 102H718.066ZM731.694 102.25C730.944 102.25 730.259 102.083 729.639 101.75C729.028 101.417 728.537 100.954 728.167 100.361C727.806 99.7685 727.625 99.0926 727.625 98.3333C727.625 97.6852 727.759 97.0648 728.028 96.4722C728.306 95.8796 728.681 95.3565 729.153 94.9028C729.625 94.4398 730.167 94.0787 730.778 93.8194C731.398 93.5509 732.051 93.4167 732.736 93.4167C733.31 93.4167 733.829 93.5046 734.292 93.6806C734.764 93.8565 735.176 94.1019 735.528 94.4167L734.347 96.8194C734.218 96.4491 733.991 96.1481 733.667 95.9167C733.343 95.6852 732.944 95.5694 732.472 95.5694C732 95.5694 731.569 95.6898 731.181 95.9306C730.792 96.1713 730.481 96.4861 730.25 96.875C730.028 97.2546 729.917 97.6667 729.917 98.1111C729.917 98.6759 730.102 99.1481 730.472 99.5278C730.843 99.8981 731.333 100.083 731.944 100.083C732.565 100.083 733.093 99.9213 733.528 99.5972C733.963 99.2731 734.269 98.9537 734.444 98.6389V101.389C734.093 101.676 733.676 101.889 733.194 102.028C732.722 102.176 732.222 102.25 731.694 102.25ZM740.187 102.278C739.382 102.278 738.659 102.106 738.02 101.764C737.382 101.412 736.877 100.94 736.507 100.347C736.145 99.7546 735.965 99.0833 735.965 98.3333C735.965 97.6667 736.099 97.037 736.368 96.4444C736.645 95.8426 737.025 95.3148 737.507 94.8611C737.988 94.3981 738.544 94.037 739.173 93.7778C739.803 93.5185 740.469 93.3889 741.173 93.3889C742.044 93.3889 742.77 93.5833 743.354 93.9722C743.946 94.3611 744.358 94.8889 744.59 95.5556C744.831 96.2222 744.844 96.9769 744.632 97.8194L744.451 98.5417H739.368C739.192 98.5417 739.016 98.5324 738.84 98.5139C738.664 98.4954 738.479 98.4676 738.284 98.4306C738.368 99.0139 738.599 99.4676 738.979 99.7917C739.368 100.116 739.849 100.278 740.423 100.278C740.905 100.278 741.391 100.153 741.882 99.9028C742.372 99.6528 742.729 99.3519 742.951 99V101.389C742.608 101.657 742.192 101.87 741.701 102.028C741.219 102.194 740.715 102.278 740.187 102.278ZM738.284 96.9722C738.849 96.8519 739.354 96.7917 739.798 96.7917H741.27C741.52 96.7917 741.752 96.8009 741.965 96.8194C742.187 96.838 742.4 96.8704 742.604 96.9167C742.567 96.4167 742.386 96.0278 742.062 95.75C741.747 95.463 741.317 95.3194 740.77 95.3194C740.206 95.3194 739.701 95.4722 739.257 95.7778C738.812 96.0833 738.488 96.4815 738.284 96.9722ZM744.957 102L748.291 88.6667H750.707L747.374 102H744.957ZM749.254 102L752.588 88.6667H755.004L751.671 102H749.254ZM758.371 102.278C757.565 102.278 756.843 102.106 756.204 101.764C755.565 101.412 755.06 100.94 754.69 100.347C754.329 99.7546 754.148 99.0833 754.148 98.3333C754.148 97.6667 754.283 97.037 754.551 96.4444C754.829 95.8426 755.209 95.3148 755.69 94.8611C756.172 94.3981 756.727 94.037 757.357 93.7778C757.986 93.5185 758.653 93.3889 759.357 93.3889C760.227 93.3889 760.954 93.5833 761.537 93.9722C762.13 94.3611 762.542 94.8889 762.773 95.5556C763.014 96.2222 763.028 96.9769 762.815 97.8194L762.635 98.5417H757.551C757.375 98.5417 757.199 98.5324 757.023 98.5139C756.848 98.4954 756.662 98.4676 756.468 98.4306C756.551 99.0139 756.783 99.4676 757.162 99.7917C757.551 100.116 758.033 100.278 758.607 100.278C759.088 100.278 759.574 100.153 760.065 99.9028C760.556 99.6528 760.912 99.3519 761.135 99V101.389C760.792 101.657 760.375 101.87 759.885 102.028C759.403 102.194 758.898 102.278 758.371 102.278ZM756.468 96.9722C757.033 96.8519 757.537 96.7917 757.982 96.7917H759.454C759.704 96.7917 759.935 96.8009 760.148 96.8194C760.371 96.838 760.584 96.8704 760.787 96.9167C760.75 96.4167 760.57 96.0278 760.246 95.75C759.931 95.463 759.5 95.3194 758.954 95.3194C758.389 95.3194 757.885 95.4722 757.44 95.7778C756.996 96.0833 756.672 96.4815 756.468 96.9722ZM763.113 102L765.197 93.6667H767.363L767.155 94.5556C767.516 94.1574 767.919 93.8657 768.363 93.6806C768.817 93.4861 769.28 93.3889 769.752 93.3889C770.502 93.3889 771.095 93.5787 771.53 93.9583C771.974 94.3287 772.266 94.8102 772.405 95.4028C772.544 95.9861 772.53 96.6019 772.363 97.25L771.169 102H768.752L769.947 97.2778C770.076 96.7778 770.035 96.338 769.822 95.9583C769.618 95.5787 769.248 95.3889 768.711 95.3889C768.294 95.3889 767.905 95.5324 767.544 95.8194C767.183 96.0972 766.923 96.537 766.766 97.1389L765.53 102H763.113ZM777.534 102.25C776.784 102.25 776.099 102.083 775.479 101.75C774.868 101.417 774.377 100.954 774.007 100.361C773.645 99.7685 773.465 99.0926 773.465 98.3333C773.465 97.6852 773.599 97.0648 773.868 96.4722C774.145 95.8796 774.52 95.3565 774.993 94.9028C775.465 94.4398 776.007 94.0787 776.618 93.8194C777.238 93.5509 777.891 93.4167 778.576 93.4167C779.15 93.4167 779.669 93.5046 780.132 93.6806C780.604 93.8565 781.016 94.1019 781.368 94.4167L780.187 96.8194C780.057 96.4491 779.831 96.1481 779.507 95.9167C779.182 95.6852 778.784 95.5694 778.312 95.5694C777.84 95.5694 777.409 95.6898 777.02 95.9306C776.632 96.1713 776.321 96.4861 776.09 96.875C775.868 97.2546 775.757 97.6667 775.757 98.1111C775.757 98.6759 775.942 99.1481 776.312 99.5278C776.682 99.8981 777.173 100.083 777.784 100.083C778.405 100.083 778.932 99.9213 779.368 99.5972C779.803 99.2731 780.108 98.9537 780.284 98.6389V101.389C779.932 101.676 779.516 101.889 779.034 102.028C778.562 102.176 778.062 102.25 777.534 102.25ZM786.027 102.278C785.221 102.278 784.499 102.106 783.86 101.764C783.221 101.412 782.717 100.94 782.346 100.347C781.985 99.7546 781.805 99.0833 781.805 98.3333C781.805 97.6667 781.939 97.037 782.207 96.4444C782.485 95.8426 782.865 95.3148 783.346 94.8611C783.828 94.3981 784.383 94.037 785.013 93.7778C785.643 93.5185 786.309 93.3889 787.013 93.3889C787.883 93.3889 788.61 93.5833 789.194 93.9722C789.786 94.3611 790.198 94.8889 790.43 95.5556C790.67 96.2222 790.684 96.9769 790.471 97.8194L790.291 98.5417H785.207C785.032 98.5417 784.856 98.5324 784.68 98.5139C784.504 98.4954 784.319 98.4676 784.124 98.4306C784.207 99.0139 784.439 99.4676 784.819 99.7917C785.207 100.116 785.689 100.278 786.263 100.278C786.745 100.278 787.231 100.153 787.721 99.9028C788.212 99.6528 788.569 99.3519 788.791 99V101.389C788.448 101.657 788.032 101.87 787.541 102.028C787.059 102.194 786.555 102.278 786.027 102.278ZM784.124 96.9722C784.689 96.8519 785.194 96.7917 785.638 96.7917H787.11C787.36 96.7917 787.592 96.8009 787.805 96.8194C788.027 96.838 788.24 96.8704 788.444 96.9167C788.407 96.4167 788.226 96.0278 787.902 95.75C787.587 95.463 787.157 95.3194 786.61 95.3194C786.045 95.3194 785.541 95.4722 785.096 95.7778C784.652 96.0833 784.328 96.4815 784.124 96.9722Z" fill="white"/>
<defs>
<filter id="filter0_d_1_199" x="110.383" y="36.7613" width="72.525" height="9.45752" filterUnits="userSpaceOnUse" color-interpolation-filters="sRGB">
<feFlood flood-opacity="0" result="BackgroundImageFix"/>
<feColorMatrix in="SourceAlpha" type="matrix" values="0 0 0 0 0 0 0 0 0 0 0 0 0 0 0 0 0 0 127 0" result="hardAlpha"/>
<feOffset dy="4"/>
<feGaussianBlur stdDeviation="2"/>
<feComposite in2="hardAlpha" operator="out"/>
<feColorMatrix type="matrix" values="0 0 0 0 0 0 0 0 0 0 0 0 0 0 0 0 0 0 0.25 0"/>
<feBlend mode="normal" in2="BackgroundImageFix" result="effect1_dropShadow_1_199"/>
<feBlend mode="normal" in="SourceGraphic" in2="effect1_dropShadow_1_199" result="shape"/>
</filter>
</defs>
</svg>
